<svg width="18" height="18" viewBox="0 0 18 18" fill="none" xmlns="http://www.w3.org/2000/svg">
<path d="M6.72245 3.72634C7.73603 1.90878 8.24242 1 9 1C9.75758 1 10.264 1.90878 11.2775 3.72634L11.5399 4.19672C11.8279 4.71351 11.9719 4.97191 12.1959 5.1423C12.4199 5.3127 12.6999 5.3759 13.2599 5.50229L13.7687 5.61749C15.7366 6.06308 16.7198 6.28548 16.9542 7.03826C17.1878 7.79024 16.5174 8.57502 15.1759 10.1438L14.8287 10.5494C14.4479 10.995 14.2567 11.2182 14.1711 11.4934C14.0855 11.7693 14.1143 12.0669 14.1719 12.6613L14.2247 13.2029C14.4271 15.2965 14.5287 16.3428 13.9159 16.8076C13.3031 17.2732 12.3815 16.8484 10.54 16.0004L10.0624 15.7813C9.53919 15.5397 9.27759 15.4197 9 15.4197C8.72241 15.4197 8.46081 15.5397 7.93682 15.7813L7.46084 16.0004C5.61848 16.8484 4.6969 17.2724 4.08492 16.8084C3.47133 16.3428 3.57293 15.2965 3.77532 13.2029L3.82812 12.6621C3.88572 12.0669 3.91452 11.7693 3.82812 11.4942C3.74332 11.2182 3.55213 10.995 3.17134 10.5502L2.82415 10.1438C1.48258 8.57582 0.812192 7.79104 1.04579 7.03826C1.28018 6.28548 2.26416 6.06228 4.23211 5.61749L4.7409 5.50229C5.30009 5.3759 5.57928 5.3127 5.80408 5.1423C6.02807 4.97191 6.17207 4.71351 6.46006 4.19672L6.72245 3.72634Z" stroke="#2F2F2F" stroke-width="2"/>
</svg>
