<svg width="21" height="20" viewBox="0 0 21 20" fill="none" xmlns="http://www.w3.org/2000/svg">
<path d="M19.0001 7.99979C19.0001 7.73457 18.8947 7.48022 18.7072 7.29268C18.5197 7.10514 18.2653 6.99979 18.0001 6.99979C17.7349 6.99979 17.4805 7.10514 17.293 7.29268C17.1054 7.48022 17.0001 7.73457 17.0001 7.99979H19.0001ZM5.00008 7.99979C5.00008 7.73457 4.89472 7.48022 4.70719 7.29268C4.51965 7.10514 4.2653 6.99979 4.00008 6.99979C3.73486 6.99979 3.48051 7.10514 3.29297 7.29268C3.10544 7.48022 3.00008 7.73457 3.00008 7.99979H5.00008ZM19.2931 10.7068C19.4817 10.8889 19.7343 10.9897 19.9965 10.9875C20.2587 10.9852 20.5095 10.88 20.6949 10.6946C20.8803 10.5092 20.9855 10.2584 20.9878 9.99619C20.99 9.73399 20.8892 9.48139 20.7071 9.29279L19.2931 10.7068ZM11.0001 0.999786L11.7071 0.292786C11.5196 0.105315 11.2652 0 11.0001 0C10.7349 0 10.4806 0.105315 10.2931 0.292786L11.0001 0.999786ZM1.29308 9.29279C1.19757 9.38503 1.12139 9.49538 1.06898 9.61738C1.01657 9.73939 0.988985 9.87061 0.987831 10.0034C0.986677 10.1362 1.01198 10.2678 1.06226 10.3907C1.11254 10.5136 1.18679 10.6253 1.28069 10.7192C1.37458 10.8131 1.48623 10.8873 1.60913 10.9376C1.73202 10.9879 1.8637 11.0132 1.99648 11.012C2.12926 11.0109 2.26048 10.9833 2.38249 10.9309C2.50449 10.8785 2.61483 10.8023 2.70708 10.7068L1.29308 9.29279ZM6.00008 19.9998H16.0001V17.9998H6.00008V19.9998ZM19.0001 16.9998V7.99979H17.0001V16.9998H19.0001ZM5.00008 16.9998V7.99979H3.00008V16.9998H5.00008ZM20.7071 9.29279L11.7071 0.292786L10.2931 1.70679L19.2931 10.7068L20.7071 9.29279ZM10.2931 0.292786L1.29308 9.29279L2.70708 10.7068L11.7071 1.70679L10.2931 0.292786ZM16.0001 19.9998C16.7957 19.9998 17.5588 19.6837 18.1214 19.1211C18.684 18.5585 19.0001 17.7954 19.0001 16.9998H17.0001C17.0001 17.265 16.8947 17.5194 16.7072 17.7069C16.5197 17.8944 16.2653 17.9998 16.0001 17.9998V19.9998ZM6.00008 17.9998C5.73486 17.9998 5.48051 17.8944 5.29297 17.7069C5.10544 17.5194 5.00008 17.265 5.00008 16.9998H3.00008C3.00008 17.7954 3.31615 18.5585 3.87876 19.1211C4.44137 19.6837 5.20443 19.9998 6.00008 19.9998V17.9998Z" fill="white"/>
</svg>
