<svg width="16" height="18" viewBox="0 0 16 18" fill="none" xmlns="http://www.w3.org/2000/svg">
<path fill-rule="evenodd" clip-rule="evenodd" d="M16 17.7778H2.66667C1.19391 17.7778 0 16.5839 0 15.1111V2.66667C0 1.19391 1.19391 0 2.66667 0H16V14.2222C15.5091 14.2222 15.1111 14.6202 15.1111 15.1111C15.1111 15.602 15.5091 16 16 16V17.7778ZM13.3333 15.1111C13.3333 14.7994 13.3868 14.5002 13.4851 14.2222H2.66667C2.17575 14.2222 1.77778 14.6202 1.77778 15.1111C1.77778 15.602 2.17575 16 2.66667 16H13.4851C13.3868 15.722 13.3333 15.4228 13.3333 15.1111ZM2.66667 1.77778H14.2222V12.4444H2.66667C2.35499 12.4444 2.0558 12.4979 1.77778 12.5962V2.66667C1.77778 2.17575 2.17575 1.77778 2.66667 1.77778Z" fill="#2F2F2F"/>
</svg>
