<svg width="40" height="40" viewBox="0 0 40 40" fill="none" xmlns="http://www.w3.org/2000/svg">
<path fill-rule="evenodd" clip-rule="evenodd" d="M20 22.9999C22.1217 22.9999 24.1566 22.157 25.6569 20.6567C27.1571 19.1564 28 17.1216 28 14.9999C28 12.8781 27.1571 10.8433 25.6569 9.34302C24.1566 7.84273 22.1217 6.99988 20 6.99988C17.8783 6.99988 15.8434 7.84273 14.3431 9.34302C12.8429 10.8433 12 12.8781 12 14.9999C12 17.1216 12.8429 19.1564 14.3431 20.6567C15.8434 22.157 17.8783 22.9999 20 22.9999ZM20 20.9999C20.7879 20.9999 21.5681 20.8447 22.2961 20.5432C23.0241 20.2416 23.6855 19.7997 24.2426 19.2425C24.7998 18.6854 25.2417 18.0239 25.5433 17.296C25.8448 16.568 26 15.7878 26 14.9999C26 14.2119 25.8448 13.4317 25.5433 12.7038C25.2417 11.9758 24.7998 11.3144 24.2426 10.7572C23.6855 10.2001 23.0241 9.75813 22.2961 9.4566C21.5681 9.15507 20.7879 8.99988 20 8.99988C18.4087 8.99988 16.8826 9.63202 15.7574 10.7572C14.6321 11.8825 14 13.4086 14 14.9999C14 16.5912 14.6321 18.1173 15.7574 19.2425C16.8826 20.3677 18.4087 20.9999 20 20.9999Z" fill="#FDFDFD"/>
<path fill-rule="evenodd" clip-rule="evenodd" d="M40 20C40 31.046 31.046 40 20 40C8.954 40 0 31.046 0 20C0 8.954 8.954 0 20 0C31.046 0 40 8.954 40 20ZM29.63 35.21C26.751 37.0376 23.4101 38.0055 20 38C16.5081 38.0056 13.0907 36.9907 10.168 35.08C9.928 34.78 9.685 34.47 9.438 34.15C9.15253 33.775 8.99859 33.3163 9 32.845C9 31.768 9.774 30.865 10.809 30.714C17.654 29.714 22.367 29.8 29.221 30.749C29.7174 30.821 30.1709 31.0701 30.4979 31.4504C30.8249 31.8307 31.0033 32.3165 31 32.818C31 33.298 30.835 33.764 30.537 34.128C30.23 34.502 29.927 34.863 29.63 35.21ZM32.985 32.466C32.825 30.594 31.404 29.032 29.495 28.768C22.479 27.797 17.575 27.704 10.52 28.735C8.6 29.015 7.185 30.591 7.017 32.468C3.79233 29.1191 1.99364 24.6491 2 20C2 10.059 10.059 2 20 2C29.941 2 38 10.059 38 20C38.0064 24.6481 36.2085 29.1172 32.985 32.466Z" fill="#FDFDFD"/>
</svg>
